<svg xmlns="http://www.w3.org/2000/svg" xmlns:xlink="http://www.w3.org/1999/xlink" version="1.1" style="enable-background:new 0 0 800 600;" xml:space="preserve" width="676.0769129194448" height="239.67031608671812"><rect id="backgroundrect" width="100%" height="100%" x="0" y="0" fill="none" stroke="none"/>
<style type="text/css">
	.st0{fill:#ADE8E3;}
	.st1{fill:#C7416A;}
	.st2{fill:#F2931F;}
	.st3{fill:#F0514A;}
	.st4{fill:#4A3C5E;}
</style>

<g class="currentLayer" style=""><title>Layer 1</title><g id="svg_1" class="">
	<g id="svg_2">
		<path class="st0" d="M152.81977049112322,77.37471280097964 c0,22.3 -9.7,42.3 -25.2,56 v42.8 h-99.6 v-42.8 c-15.4,-13.7 -25.2,-33.7 -25.2,-56 c0,-41.4 33.6,-74.9 74.9,-74.9 S152.81977049112322,35.9747128009796 152.81977049112322,77.37471280097964 z" id="svg_3"/>
	</g>
	<g id="svg_4">
		<path class="st1" d="M119.41977049112319,194.07471280097957 h-83 c-3.6,0 -6.5,-2.9 -6.5,-6.5 l0,0 c0,-3.6 2.9,-6.5 6.5,-6.5 h83 c3.6,0 6.5,2.9 6.5,6.5 l0,0 C125.91977049112319,191.1747128009796 122.91977049112319,194.07471280097957 119.41977049112319,194.07471280097957 z" id="svg_5"/>
	</g>
	<g id="svg_6">
		<path class="st2" d="M102.2197704911232,216.87471280097964 c-2.4,9.1 -12.4,15.9 -24.4,15.9 s-22,-6.8 -24.4,-15.9 H102.2197704911232 z" id="svg_7"/>
	</g>
	<g id="svg_8">
		<path class="st3" d="M115.91977049112319,211.97471280097966 h-76.2 c-3.6,0 -6.5,-2.9 -6.5,-6.5 l0,0 c0,-3.6 2.9,-6.5 6.5,-6.5 h76.2 c3.6,0 6.5,2.9 6.5,6.5 l0,0 C122.41977049112319,208.97471280097966 119.51977049112321,211.97471280097966 115.91977049112319,211.97471280097966 z" id="svg_9"/>
	</g>
	<g id="svg_10">
		<path class="st4" d="M78.91977049112319,83.17471280097959 c-6.8,0 -12.3,-2.1 -15.8,-4 c-4.8,0.3000000000000002 -9.4,-0.2 -13.8,-1.4 c-3.5,-1 -8.7,-2.4 -10,-6.8 c-0.2,-0.7000000000000004 -0.3000000000000002,-1.5 -0.3000000000000002,-2.3 c0.1,-5.3 4.4,-10.6 8.6,-13.3 c5.6,-3.7 11.6,-3.6 15,-3.1 c1.3,-2.7 4.4,-7.8 10.9,-9.6 c6.5,-1.8 11.8,1 13.3,1.9 c4.2,2.6 6.2,6.4 7.1,9 c1.8,-0.7000000000000004 4.4,-1.2 7.2,-0.4 c2.4,0.7000000000000004 4.4,2.1 6.1,4.3 c1.3,1.7000000000000002 1.9,3.4 2.3,4.8 c1.5,0 2.9,0.4 4,1.2 c3.3,2.3 3.1,6.6 3.1,7 c-0.4,5.4 -6.4,8.4 -9,9.5 h0 c-5.6,2.3 -11.1,1 -14.3,-0.2 c-4.4,2.1 -9.3,3.3 -14.2,3.3 C79.11977049112318,83.17471280097959 79.01977049112321,83.17471280097959 78.91977049112319,83.17471280097959 zM64.01977049112321,75.17471280097959 l0.5,0.3000000000000002 c3.1,1.7000000000000002 8.1,3.8 14.6,3.8 c4.6,0 9.1,-1.2 13.2,-3.3 l0.8,-0.4 l0.9,0.4 c2.4,1 7.2,2.5 12.1,0.5 l0.7000000000000004,1.9 l-0.7000000000000004,-1.9 c1.5,-0.6000000000000004 6.3,-2.8 6.5,-6.1 c0,0 0.2,-2.4 -1.4,-3.4 c-0.9,-0.6000000000000004 -2.2,-0.5 -2.9,-0.3000000000000002 l-2.3,0.5 l-0.2,-2.3 c-0.1,-1.2 -0.5,-3 -1.8,-4.7 c-0.4,-0.6000000000000004 -1.7000000000000002,-2.3 -4,-2.9 c-3,-0.9 -5.6,0.6000000000000004 -6.3,1 l-2.5,1.6 l-0.5,-2.9 c-0.2,-1.3 -1.4,-6 -6,-8.8 c-1.1,-0.7000000000000004 -5.2,-2.9 -10.1,-1.5 c-6.5,1.8 -8.7,8.4 -8.8,8.6 l-0.6000000000000004,1.7000000000000002 l-1.8,-0.4 c-2.3,-0.5 -8.3,-1.3 -13.7,2.2 c-3.4,2.2 -6.8,6.4 -6.8,10.1 c0,0.4 0,0.8 0.1,1.1 c0.7000000000000004,2.3 4.7,3.4 7.3,4.1 c4.1,1.1 8.5,1.6 13,1.2 L64.01977049112321,75.17471280097959 z" id="svg_11"/>
	</g>
	<g id="svg_12">
		<path class="st4" d="M56.2197704911232,168.87471280097964 c-0.3000000000000002,-28.9 -2.3,-49.9 -3.6,-57 c-0.8,-4.6 -2,-9.9 -2.1,-9.9 c-1.2,-5.1 -1.7000000000000002,-7.7 -2.9,-11.2 c-1,-3 -1.9,-5.1 -3.6,-9.3 c-1.5,-3.5 -3,-7.1 -4.7,-10.6 l3.6,-1.7000000000000002 c1.6,3.5 3.2,7.1 4.7,10.7 c1.8,4.3 2.7,6.5 3.7,9.6 c1.2,3.7 1.8,6.3 3,11.5 c0,0.1 1.2,5.4 2.1,10.1 c1.6,8.6 3.4,30.3 3.7,57.7 L56.2197704911232,168.87471280097964 z" id="svg_13"/>
	</g>
	<g id="svg_14">
		<path class="st4" d="M99.51977049112321,169.27471280097961 l-4,0 c0.3000000000000002,-27.3 2.1,-49 3.7,-57.7 c0.9,-4.6 2.1,-10 2.1,-10.1 c1.2,-5.2 1.8,-7.9 3,-11.5 c1,-3.1 1.9,-5.3 3.7,-9.6 c1.5,-3.6 3.1,-7.2 4.7,-10.7 l3.6,1.7000000000000002 c-1.6,3.5 -3.2,7 -4.7,10.6 c-1.8,4.2 -2.6,6.4 -3.6,9.3 c-1.1,3.5 -1.7000000000000002,6 -2.9,11.2 c0,0.1 -1.2,5.4 -2.1,9.9 C101.91977049112319,119.37471280097964 99.81977049112322,140.37471280097964 99.51977049112321,169.27471280097961 z" id="svg_15"/>
	</g>
	<g id="svg_16">
		<g id="svg_17">
			<path class="st4" d="M220.61977049112318,159.57471280097957 c0,10.4 0.4,11.1 7.6,12.5 v4 h-30.9 v-4 c9.2,-1.9 9.7,-2.8 9.7,-12.5 v-27.7 c0,-9.5 -1.9,-12.2 -9,-13.2 v-4 c4.4,0 17.4,-1.9 22.5,-4 V159.57471280097957 zM221.81977049112322,91.87471280097964 c0,4.9 -4,9 -9,9 c-5,0 -9,-4.2 -9,-9 c0,-5 4,-9 9,-9 C217.81977049112322,82.87471280097964 221.81977049112322,86.87471280097964 221.81977049112322,91.87471280097964 z" id="svg_18"/>
		</g>
		<g id="svg_19">
			<path class="st4" d="M299.41977049112324,155.97471280097966 c0,8.5 1.9,11.3 8.8,12.2 v4 c-4.9,0 -14,2.4 -20.4,4.7 l-1.9,-1.4 v-8.2 c-8.1,7 -14.9,10.4 -22.4,10.4 c-14.7,0 -26.3,-13.1 -26.3,-29.3 c0,-19 15.3,-35 35.4,-38.2 c4,0 9.5,1.3 13.2,2.8 v-17 c0,-9.6 -1.4,-12.2 -7,-13.2 v-4.2 c3.9,0 16.7,-2.8 20.6,-4.6 V155.97471280097966 zM285.8197704911232,123.37471280097964 c-5,-4.3 -10,-6.5 -15.6,-6.5 c-10.6,0 -17.1,8.5 -17.1,25.3 c0,16.5 6.1,26.5 17.8,26.5 c5.7,0 10.3,-2.2 14.9,-6.3 V123.37471280097964 z" id="svg_20"/>
		</g>
		<g id="svg_21">
			<path class="st4" d="M375.3197704911232,165.57471280097957 c-8.9,8.3 -16.8,12.2 -26.8,12.2 c-17.1,0 -30.3,-11.7 -30.3,-32.1 c0,-21.8 15.3,-35.4 32.9,-35.4 c14.3,0 24,8.8 24,21 c0,4.3 0,9.7 -2.4,9.7 l-38.6,0.6000000000000004 c0,19 7.2,27.4 20.2,27.4 c7.6,0 14.3,-2.8 19.5,-8.3 L375.3197704911232,165.57471280097957 zM358.7197704911232,134.57471280097963 c1,0 1.8,-1.7000000000000002 1.5,-6.3 c-0.4,-8.3 -3.8,-12.8 -10.7,-12.8 c-8.6,0 -13.8,6.8 -15.2,19 H358.7197704911232 z" id="svg_22"/>
		</g>
		<g id="svg_23">
			<path class="st4" d="M437.1197704911232,160.07471280097957 c0,6.3 1.7000000000000002,9.9 7.2,9.9 v3.2 l-15,4.4 l-5.4,-8.2 c-8.3,4.9 -13.3,8.5 -20.6,8.5 c-11.1,0 -17,-8.5 -17,-17.8 c0,-5.7 2.4,-11.8 9.3,-15.2 l27.9,-6.8 v-7.6 c0,-10 -3.6,-14.6 -11.8,-14.6 c-3.9,0 -7,1 -10.3,3.1 c2.9,1.7000000000000002 3.9,4.4 3.9,6.7 c0,4.2 -3.5,7 -7.8,7 c-5,0 -7.8,-3.8 -7.8,-7.9 c0,-7.6 9.7,-14.3 24.3,-14.3 c15.6,0 22.9,7.6 22.9,24.7 V160.07471280097957 zM403.91977049112324,149.87471280097964 c-1.5,1.8 -2.5,4.6 -2.5,8.1 c0,6.7 3.6,10.4 9.3,10.4 c3.3,0 8.1,-1.1 12.9,-3.9 v-20.6 L403.91977049112324,149.87471280097964 z" id="svg_24"/>
		</g>
		<g id="svg_25">
			<path class="st4" d="M504.7197704911232,108.9747128009796 c-3.5,-12 -9.3,-21.4 -20.7,-21.4 c-7.4,0 -14.6,3.9 -14.6,12.2 c0,20.7 46.2,21 46.2,51.2 c0,16.3 -13.2,26.8 -31.1,26.8 c-10.1,0 -18.6,-3.3 -24.7,-9.7 l-1.4,7.2 h-5.6 v-31.3 h5.7 c6.4,17.8 14.7,26.3 26.3,26.3 c9.3,0 16.3,-5.4 16.3,-15.3 c0,-25 -45.2,-22 -45.2,-49.9 c0,-15.6 13.9,-24.7 27.5,-24.7 c5.8,0 14.5,1.5 19.6,4.9 l1.5,-5.3 h5.3 v29.1 H504.7197704911232 z" id="svg_26"/>
		</g>
		<g id="svg_27">
			<path class="st4" d="M578.5197704911232,176.1747128009796 c-2.1,-4 -10,-12.2 -9.9,-12 l-15.8,-17.4 c-1.8,-2.1 -3.5,-2.2 -5,-2.1 h-0.3000000000000002 v14.9 c0,10.4 0.4,11.1 9.7,12.5 v4 h-32.3 v-4 c8.6,-1.9 9,-2.8 9,-12.5 v-63.5 c0,-9.6 -1.5,-12.2 -7.2,-13.2 v-4.2 c4.7,0 16.5,-2.5 20.7,-4.2 v65.5 c2.2,-0.1 4.4,-0.8 6,-1.9 l15.3,-14.5 c3.3,-3.2 2.8,-6 1,-6.8 c-0.7000000000000004,-0.4 -2.1,-0.6000000000000004 -4.2,-0.6000000000000004 v-4.3 h30.9 l0.3000000000000002,3.8 c-4.3,0.7000000000000004 -11.1,1.4 -19.2,8.2 l-17.1,14.3 c12.2,15 24.2,30.4 42,33.9 v4 H578.5197704911232 z" id="svg_28"/>
		</g>
		<g id="svg_29">
			<path class="st4" d="M670.8197704911232,115.9747128009796 c-6.5,1 -9.2,3.1 -13.6,12.1 c-3.1,6.3 -1.7000000000000002,4.7 -19.7,46.6 c-13.2,30.4 -18.6,42.1 -28.4,42.1 c-4.7,0 -8.8,-2.9 -8.8,-8.1 c0,-3.5 1.8,-7.2 6.8,-7.2 c1.9,0 3.3,0.6000000000000004 5.1,2.5 c0.4,0.6000000000000004 1.5,1.8 2.5,2.6 c0.7000000000000004,0 4.4,-4.6 12.9,-25.6 c2.1,-5 2.4,-6.1 1,-9 c-5.3,-12.1 -12.2,-26.8 -21.7,-45.5 c-4,-7.8 -4.6,-8.8 -12.1,-10.6 v-4 h31.1 v4 c-5.6,0.7000000000000004 -7.1,2.4 -5.1,6.4 l15.7,36.6 c13.2,-32.8 14,-35 14.5,-36.6 c1.1,-4 -1,-5.4 -7.5,-6.4 v-4 h27.2 V115.9747128009796 z" id="svg_30"/>
		</g>
	</g>
</g></g></svg>